<?xml version="1.0" encoding="UTF-8"?>
<!DOCTYPE svg PUBLIC "-//W3C//DTD SVG 1.1//EN" "http://www.w3.org/Graphics/SVG/1.1/DTD/svg11.dtd">
<!-- Creator: CorelDRAW 2019 (64-Bit) -->
<svg xmlns="http://www.w3.org/2000/svg" xml:space="preserve" width="400mm" height="220mm" version="1.1" style="shape-rendering:geometricPrecision; text-rendering:geometricPrecision; image-rendering:optimizeQuality; fill-rule:evenodd; clip-rule:evenodd"
viewBox="0 0 40000 22000"
 xmlns:xlink="http://www.w3.org/1999/xlink">
 <defs>
  <style type="text/css">
   <![CDATA[
    .fil0 {fill:#2D0001}
    .fil2 {fill:url(#id0)}
    .fil1 {fill:url(#id1)}
   ]]>
  </style>
  <linearGradient id="id0" gradientUnits="userSpaceOnUse" x1="30313.14" y1="508.68" x2="26054.07" y2="21504.66">
   <stop offset="0" style="stop-opacity:1; stop-color:#390000"/>
   <stop offset="1" style="stop-opacity:1; stop-color:#A60001"/>
  </linearGradient>
  <linearGradient id="id1" gradientUnits="userSpaceOnUse" xlink:href="#id0" x1="13932.47" y1="508.68" x2="9673.4" y2="21504.66">
  </linearGradient>
 </defs>
 <g id="Layer_x0020_1">
  <metadata id="CorelCorpID_0Corel-Layer"/>
  <path class="fil0" d="M13646.22 10528.79c208.83,73.83 403.33,186.92 544.25,362.22 173.94,216.38 242.16,477.13 242.16,751.85 0,234.12 -52.68,457.04 -170.6,659.83 -114.02,196.08 -270.9,350.69 -467.27,464.06 -156.71,90.46 -373.11,131.3 -550.65,154.34 -129.27,16.77 -258.89,32.93 -388.61,45.9 -77.64,7.75 -159.43,15.85 -237.49,15.85l-2448.86 0 0 -4599.26 2650.95 0c372.86,0 756.71,78.43 1038.57,338.73 245.44,226.64 368.76,509.71 368.76,843.74 0,273.38 -84.45,518.1 -264.74,725.04 -87.61,100.56 -197.64,177.72 -316.47,237.7zm2880.84 -588.53l1334.15 -1556.68 2037.02 0 -1706.48 1756.56 1738.29 2842.7 -1868.49 0 -912.34 -1776.33 -622.15 648.34 0 1127.99 -1521.31 0 0 -4599.26 1521.31 0 0 1556.68zm5173.43 1394.81l0 1647.77 -1527.54 0 0 -4599.26 2361.81 0c414.22,0 860.83,79.18 1171.12,375.88 295.11,282.17 394.77,668.45 394.77,1066.7 0,420.72 -115.67,814.69 -429.51,1108.69 -340.8,319.27 -839.81,400.22 -1289.75,400.22l-680.9 0zm5536.26 -466.06l636.1 -2485.43 1937.02 0 0 4599.26 -1272.59 0 0 -2883.32 -737.78 2883.32 -1134.04 0 -735.64 -2881.95 0 2881.95 -1272.61 0 0 -4599.26 1945.36 0 634.18 2485.43zm-15533.84 -738.16l526.47 0c115.75,0 308.06,-11.28 400.06,-92.47 77.68,-68.56 101.55,-165.52 101.55,-266.11 0,-96.88 -26.86,-183.47 -101.18,-248.15 -92.07,-80.13 -275.63,-91.78 -391.1,-91.78l-535.8 0 0 698.51zm0 1747.27l628.03 0c136.84,0 344.31,-14.42 453.59,-108.57 86.2,-74.3 120.56,-169.37 120.56,-282.14 0,-105.95 -35.32,-192.48 -117.4,-260.44 -109.28,-90.48 -325.12,-103.34 -459.85,-103.34l-624.93 0 0 754.49zm9997.58 -1591.8l265.33 0c153.97,0 391.6,-15.71 514.9,-121.21 92.31,-79.01 135.93,-177.19 135.93,-298.54 0,-118.57 -38.04,-218.92 -120.37,-304.43 -104.92,-108.97 -335.05,-123.59 -475.55,-123.59l-320.24 0 0 847.77z"/>
  <path class="fil1" d="M11983.74 1881.63c3937.08,0 7291.78,2493.36 8571.2,5987.15l1681.12 0c-1341.63,-4388.88 -5424.18,-7581.01 -10252.29,-7581.01 -5919.88,0 -10718.89,4799.01 -10718.89,10718.89 0,5919.9 4799.01,10718.91 10718.89,10718.91 4961.56,0 9135.79,-3371.02 10357.22,-7947.66l-1660.61 0c-1173.13,3684.7 -4623.17,6353.8 -8696.64,6353.8 -5039.61,0 -9125.02,-4085.41 -9125.02,-9125.05 0,-5039.62 4085.41,-9125.03 9125.02,-9125.03z"/>
  <path class="fil2" d="M28002.8 1881.63c-3937.08,0 -7291.78,2493.36 -8571.2,5987.15l-1681.12 0c1341.63,-4388.88 5424.18,-7581.01 10252.29,-7581.01 5919.88,0 10718.89,4799.01 10718.89,10718.89 0,5919.9 -4799.01,10718.91 -10718.89,10718.91 -4961.56,0 -9135.79,-3371.02 -10357.22,-7947.66l1660.61 0c1173.13,3684.7 4623.17,6353.8 8696.64,6353.8 5039.61,0 9125.02,-4085.41 9125.02,-9125.05 0,-5039.62 -4085.41,-9125.03 -9125.02,-9125.03z"/>
 </g>
</svg>
